<svg id="US_UK_Download_on_the" data-name="US UK Download on the" xmlns="http://www.w3.org/2000/svg" xmlns:xlink="http://www.w3.org/1999/xlink" viewBox="0 0 135 40"><defs><style>.cls-1{fill:none;}.cls-2{fill:#a6a6a6;}.cls-11,.cls-3,.cls-4{fill:#fff;}.cls-3{stroke:#fff;stroke-miterlimit:10;stroke-width:0.2px;}.cls-5{fill:url(#linear-gradient);}.cls-6{fill:url(#linear-gradient-2);}.cls-7{fill:url(#linear-gradient-3);}.cls-8{fill:url(#linear-gradient-4);}.cls-9{opacity:0.2;}.cls-10,.cls-11,.cls-9{isolation:isolate;}.cls-10{opacity:0.12;}.cls-11{opacity:0.25;}</style><linearGradient id="linear-gradient" x1="21.73" y1="-93.32" x2="5.05" y2="-76.64" gradientTransform="translate(0 102)" gradientUnits="userSpaceOnUse"><stop offset="0" stop-color="#00a0ff"/><stop offset="0.01" stop-color="#00a1ff"/><stop offset="0.26" stop-color="#00beff"/><stop offset="0.51" stop-color="#00d2ff"/><stop offset="0.76" stop-color="#00dfff"/><stop offset="1" stop-color="#00e3ff"/></linearGradient><linearGradient id="linear-gradient-2" x1="33.68" y1="-82.1" x2="9.64" y2="-82.1" gradientTransform="translate(0 102)" gradientUnits="userSpaceOnUse"><stop offset="0" stop-color="#ffe000"/><stop offset="0.41" stop-color="#ffbd00"/><stop offset="0.78" stop-color="orange"/><stop offset="1" stop-color="#ff9c00"/></linearGradient><linearGradient id="linear-gradient-3" x1="24.73" y1="-79.82" x2="2.11" y2="-57.21" gradientTransform="translate(0 102)" gradientUnits="userSpaceOnUse"><stop offset="0" stop-color="#ff3a44"/><stop offset="1" stop-color="#c31162"/></linearGradient><linearGradient id="linear-gradient-4" x1="7.31" y1="-101.8" x2="17.41" y2="-91.7" gradientTransform="translate(0 102)" gradientUnits="userSpaceOnUse"><stop offset="0" stop-color="#32a071"/><stop offset="0.07" stop-color="#2da771"/><stop offset="0.48" stop-color="#15cf74"/><stop offset="0.8" stop-color="#06e775"/><stop offset="1" stop-color="#00f076"/></linearGradient></defs><title>google-play</title><path class="cls-1" d="M-9.88-9.92h154V49.71h-154Z"/><rect x="0.06" y="0.02" width="134.17" height="39.75" rx="4.97" ry="4.97"/><path class="cls-2" d="M129.26.81A4.18,4.18,0,0,1,133.43,5V34.8A4.18,4.18,0,0,1,129.26,39H5A4.18,4.18,0,0,1,.85,34.8h0V5A4.18,4.18,0,0,1,5,.81H129.26m0-.79H5a5,5,0,0,0-5,5V34.8a5,5,0,0,0,5,5H129.26a5,5,0,0,0,5-5V5A5,5,0,0,0,129.26,0Z"/><path class="cls-3" d="M47.19,10.2a2.7,2.7,0,0,1-.75,2,2.85,2.85,0,0,1-2.18.89,3.13,3.13,0,0,1-2.2-5.34,3,3,0,0,1,2.2-.89,3,3,0,0,1,1.22.25,2.37,2.37,0,0,1,.93.66l-.52.53a2,2,0,0,0-1.63-.71,2.3,2.3,0,0,0-2.32,2.3V10a2.34,2.34,0,0,0,4,1.72,1.83,1.83,0,0,0,.5-1.22H44.26V9.75h2.89A3.42,3.42,0,0,1,47.19,10.2Zm4.55-2.49H49.06V9.6H51.5v.72H49.06V12.2h2.68v.74H48.26V7h3.48ZM55,12.94h-.77V7.71H52.56V7h4.15v.73H55Zm4.63,0V7h.77v6Zm4.16,0H63V7.71H61.36V7h4.09v.73H63.79Zm9.43-.78a3.1,3.1,0,0,1-4.38,0,3.22,3.22,0,0,1,0-4.42,3.08,3.08,0,0,1,4.36,0h0A3.22,3.22,0,0,1,73.22,12.16Zm-3.81-.49a2.3,2.3,0,0,0,3.24,0,2.55,2.55,0,0,0,0-3.42,2.3,2.3,0,0,0-3.24,0A2.55,2.55,0,0,0,69.41,11.67Zm5.76,1.27V7h.94L79,11.62V7h.77v6H79L76,8.08v4.86Z"/><path class="cls-4" d="M67.78,21.64A4.22,4.22,0,1,0,72,25.86a4.15,4.15,0,0,0-4.1-4.22A.33.33,0,0,0,67.78,21.64Zm0,6.78a2.56,2.56,0,1,1,2.38-2.73v.17a2.43,2.43,0,0,1-2.32,2.56Zm-9.25-6.78a4.22,4.22,0,1,0,4.23,4.22,4.16,4.16,0,0,0-4.1-4.22.33.33,0,0,0-.14,0Zm0,6.78a2.56,2.56,0,1,1,2.37-2.74v.18a2.43,2.43,0,0,1-2.32,2.56h0Zm-11-5.48v1.79H51.8a3.74,3.74,0,0,1-1,2.25,4.35,4.35,0,0,1-3.3,1.31,4.77,4.77,0,1,1,0-9.54A4.52,4.52,0,0,1,50.74,20L52,18.77a6.28,6.28,0,0,0-4.5-1.86A6.57,6.57,0,0,0,47,30a4.51,4.51,0,0,0,.52,0,6.05,6.05,0,0,0,6-7.15Zm45,1.39a3.9,3.9,0,0,0-7.6,1.27v.26a4.13,4.13,0,0,0,4,4.22h.15a4.2,4.2,0,0,0,3.52-1.87l-1.45-1a2.37,2.37,0,0,1-2.07,1.17,2.13,2.13,0,0,1-2-1.28l5.66-2.33Zm-5.77,1.41a2.32,2.32,0,0,1,2.16-2.46h0a1.63,1.63,0,0,1,1.57.89Zm-4.59,4.09H84V17.41H82.18Zm-3-7.25h-.07a3,3,0,0,0-2.23-1,4.23,4.23,0,0,0,0,8.45,2.87,2.87,0,0,0,2.23-1h.06v.61a2.16,2.16,0,0,1-2.26,2.48,2.33,2.33,0,0,1-2.12-1.5l-1.62.68a4,4,0,0,0,3.74,2.49c2.18,0,4-1.28,4-4.4V21.88H79.14ZM77,28.42a2.57,2.57,0,0,1,0-5.12,2.37,2.37,0,0,1,2.26,2.5v.06a2.37,2.37,0,0,1-2.16,2.56H77Zm24.23-11H96.8V29.83h1.86V25.12h2.59a3.87,3.87,0,1,0,.56-7.71,5.23,5.23,0,0,0-.56,0Zm0,6H98.65V19.14h2.63a2.13,2.13,0,0,1,0,4.26Zm11.46-1.78a3.47,3.47,0,0,0-3.31,1.89l1.65.69a1.76,1.76,0,0,1,1.69-.91,1.79,1.79,0,0,1,2,1.56V25a4.09,4.09,0,0,0-1.94-.47c-1.78,0-3.58,1-3.58,2.79a2.88,2.88,0,0,0,3,2.74h.08a2.62,2.62,0,0,0,2.39-1.19h.06v1h1.79V25.05c0-2.17-1.65-3.43-3.77-3.43Zm-.23,6.8c-.6,0-1.45-.3-1.45-1.05,0-1,1.06-1.32,2-1.32a3.24,3.24,0,0,1,1.69.42,2.24,2.24,0,0,1-2.18,2ZM123,21.88l-2.13,5.39h-.06l-2.21-5.39h-2L120,29.42l-1.89,4.18H120l5.08-11.72Zm-16.71,8h1.86V17.41h-1.86Z"/><path class="cls-5" d="M10.43,7.51A2,2,0,0,0,10,8.9v22a2,2,0,0,0,.45,1.39l.07.07,12.32-12.3v-.29L10.5,7.44Z"/><path class="cls-6" d="M26.89,24.15l-4.07-4.1v-.29l4.07-4.12.09,0,4.88,2.78c1.39.78,1.39,2.07,0,2.87L27,24.1Z"/><path class="cls-7" d="M27,24.09,22.82,19.9,10.43,32.28a1.63,1.63,0,0,0,2.07.06L27,24.09"/><path class="cls-8" d="M27,15.7,12.49,7.45a1.63,1.63,0,0,0-2.07.06L22.82,19.9Z"/><path class="cls-9" d="M26.89,24l-14.4,8.2a1.67,1.67,0,0,1-2,0l-.07.07.07.07a1.67,1.67,0,0,0,2,0L27,24.09Z"/><path class="cls-10" d="M10.43,32.14A2,2,0,0,1,10,30.75v.15a2,2,0,0,0,.45,1.39l.07-.07ZM31.86,21.19l-5,2.81.09.09,4.88-2.76a1.76,1.76,0,0,0,1-1.43A1.87,1.87,0,0,1,31.86,21.19Z"/><path class="cls-11" d="M12.49,7.59l19.37,11a1.87,1.87,0,0,1,1,1.3,1.74,1.74,0,0,0-1-1.43l-19.37-11C11.1,6.67,10,7.32,10,8.91v.15C10,7.46,11.11,6.81,12.49,7.59Z"/></svg>