<?xml version="1.0" encoding="iso-8859-1"?>
<!-- Generator: Adobe Illustrator 21.0.0, SVG Export Plug-In . SVG Version: 6.00 Build 0)  -->
<svg xmlns="http://www.w3.org/2000/svg" xmlns:xlink="http://www.w3.org/1999/xlink" version="1.1" id="Capa_1" x="0px" y="0px" viewBox="0 0 497 497" style="enable-background:new 0 0 497 497;" xml:space="preserve" width="512" height="512">
<g>
	<path style="fill:#857E87;" d="M10.505,437.763c-5.5,0-10-4.5-10-10V10c0-5.5,4.5-10,10-10h291.381c5.5,0,10,4.5,10,10v427.763   H10.505z"/>
	<path style="fill:#C3DDFF;" d="M266.644,169.161c0,2.75-2.25,5-5,5H50.74c-2.75,0-5-2.25-5-5V50.323c0-2.75,2.25-5,5-5h210.901   c2.75,0,5,2.25,5,5L266.644,169.161z"/>
	<path style="fill:#A4CCFF;" d="M266.642,50.323c0-2.75-2.25-5-5-5h-40c2.75,0,5,2.25,5,5l0.002,118.838c0,2.75-2.25,5-5,5h40   c2.75,0,5-2.25,5-5L266.642,50.323z"/>
	<path style="fill:#FFFFFF;" d="M45.74,315.5c0,2.75,2.25,5,5,5H87.5c2.75,0,5-2.25,5-5v-26.898c0-2.75-2.25-5-5-5H50.74   c-2.75,0-5,2.25-5,5V315.5z"/>
	<path style="fill:#FFFFFF;" d="M132.62,315.5c0,2.75,2.25,5,5,5h36.76c2.75,0,5-2.25,5-5v-26.898c0-2.75-2.25-5-5-5h-36.76   c-2.75,0-5,2.25-5,5V315.5z"/>
	<path style="fill:#FFFFFF;" d="M219.884,315.5c0,2.75,2.25,5,5,5h41.759l4.856-19l-4.856-17.898h-41.759c-2.75,0-5,2.25-5,5V315.5z   "/>
	<path style="fill:#FFFFFF;" d="M132.357,240.5c0,2.75,2.25,5,5,5h37.286c2.75,0,5-2.25,5-5v-26.898c0-2.75-2.25-5-5-5h-37.286   c-2.75,0-5,2.25-5,5V240.5z"/>
	<path style="fill:#FFFFFF;" d="M45.74,240.5c0,2.75,2.25,5,5,5H87.5c2.75,0,5-2.25,5-5v-26.898c0-2.75-2.25-5-5-5H50.74   c-2.75,0-5,2.25-5,5V240.5z"/>
	<path style="fill:#FFFFFF;" d="M219.5,240.5c0,2.75,2.25,5,5,5h42.144l5.856-18l-5.856-18.898H224.5c-2.75,0-5,2.25-5,5V240.5z"/>
	<path style="fill:#FF8086;" d="M45.74,391.43c0,2.75,2.25,5,5,5h87.939c2.75,0,5-2.25,5-5l2.82-12.93l-2.82-14c0-2.75-2.25-5-5-5   H50.74c-2.75,0-5,2.25-5,5V391.43z"/>
	<path style="fill:#F0EEF0;" d="M464.298,128.898c0.001-2.75-1.919-3.826-4.265-2.392l-25.046,15.313   c-2.346,1.434-6.186,1.436-8.532,0.002l-24.215-14.789c-2.348-1.433-6.188-1.435-8.537-0.004l-24.272,14.797   c-2.349,1.432-6.189,1.43-8.536-0.004l-24.212-14.789c-2.347-1.433-6.188-1.434-8.535-0.002l-24.25,14.794   c-2.348,1.432-6.189,1.432-8.536-0.001l-24.449-14.919c-2.348-1.433-4.268-0.354-4.268,2.395V324.5h197.622L464.298,128.898z"/>
	<g>
		<path style="fill:#DFDDE0;" d="M460.033,126.506l-25.046,15.313c-2.346,1.435-6.186,1.436-8.532,0.002l-2.159-1.319l-0.03,183.998    h40l0.032-195.602C464.299,126.148,462.379,125.072,460.033,126.506z"/>
	</g>
	<path style="fill:#B3E59F;" d="M148.707,497c-2.75,0-5-2.25-5-5V325.497c0-2.75,2.25-5,5-5h342.788c2.75,0,5,2.25,5,5V492   c0,2.75-2.25,5-5,5H148.707z"/>
	<path style="fill:#95D6A4;" d="M491.495,320.497h-40c2.75,0,5,2.25,5,5V492c0,2.75-2.25,5-5,5h40c2.75,0,5-2.25,5-5V325.497   C496.495,322.747,494.245,320.497,491.495,320.497z"/>
	<path style="fill:#FFFFFF;" d="M174.355,434.1c19.415,0,35.172,15.592,35.172,34.822h221.101c0-19.23,15.769-34.822,35.217-34.822   v-50.706c-19.448,0-35.217-15.59-35.217-34.79H209.527c0,19.2-15.755,34.79-35.172,34.79V434.1z"/>
	<path style="fill:#B3E59F;" d="M352.584,408.764c0,17.939-14.561,32.501-32.499,32.501c-17.938,0-32.501-14.562-32.501-32.501   c0-17.969,14.563-32.499,32.501-32.499C338.023,376.266,352.584,390.795,352.584,408.764z"/>
	<g>
		<path style="fill:#9B959D;" d="M419.447,199H309.948c-9.657,0-9.674-15,0-15h109.499C429.104,184,429.121,199,419.447,199z"/>
	</g>
	<g>
		<path style="fill:#9B959D;" d="M419.447,239.558H309.948c-9.657,0-9.674-15,0-15h109.499    C429.104,224.558,429.121,239.558,419.447,239.558z"/>
	</g>
	<g>
		<path style="fill:#9B959D;" d="M378.5,280.116h-68.552c-9.657,0-9.674-15,0-15H378.5    C388.157,265.116,388.174,280.116,378.5,280.116z"/>
	</g>
</g>















</svg>
