<?xml version="1.0" encoding="iso-8859-1"?>
<!-- Generator: Adobe Illustrator 19.0.0, SVG Export Plug-In . SVG Version: 6.00 Build 0)  -->
<svg version="1.1" id="Capa_1" xmlns="http://www.w3.org/2000/svg" xmlns:xlink="http://www.w3.org/1999/xlink" x="0px" y="0px"
	 viewBox="0 0 480 480" style="enable-background:new 0 0 480 480;" xml:space="preserve">
<g>
	<path style="fill:#78B9EB;" d="M304,40V8H48v32h16h224H304z"/>
	<path style="fill:#78B9EB;" d="M96,72h32v32H96V72z"/>
	<path style="fill:#78B9EB;" d="M160,72h32v32h-32V72z"/>
	<path style="fill:#78B9EB;" d="M224,72h32v32h-32V72z"/>
	<path style="fill:#78B9EB;" d="M96,136h32v32H96V136z"/>
	<path style="fill:#78B9EB;" d="M160,136h32v32h-32V136z"/>
	<path style="fill:#78B9EB;" d="M224,136h32v32h-32V136z"/>
	<path style="fill:#78B9EB;" d="M96,200h32v32H96V200z"/>
	<path style="fill:#78B9EB;" d="M160,200h32v32h-32V200z"/>
	<path style="fill:#78B9EB;" d="M224,200h32v32h-32V200z"/>
	<path style="fill:#78B9EB;" d="M96,264h32v32H96V264z"/>
	<path style="fill:#78B9EB;" d="M160,264h32v32h-32V264z"/>
	<path style="fill:#78B9EB;" d="M224,264h32v32h-32V264z"/>
	<path style="fill:#78B9EB;" d="M96,328h32v32H96V328z"/>
	<path style="fill:#78B9EB;" d="M160,328h32v32h-32V328z"/>
	<path style="fill:#78B9EB;" d="M224,328h32v32h-32V328z"/>
	<path style="fill:#78B9EB;" d="M128,392h48v80h-48V392z"/>
	<path style="fill:#78B9EB;" d="M176,392h48v80h-48V392z"/>
	<path style="fill:#78B9EB;" d="M288,104v368h128v-48v-48v-48v-48v-48v-48v-16L288,104z"/>
</g>
<g>
	<path style="fill:#1E81CE;" d="M96,112h32c4.418,0,8-3.582,8-8V72c0-4.418-3.582-8-8-8H96c-4.418,0-8,3.582-8,8v32
		C88,108.418,91.582,112,96,112z M104,80h16v16h-16V80z"/>
	<path style="fill:#1E81CE;" d="M160,112h32c4.418,0,8-3.582,8-8V72c0-4.418-3.582-8-8-8h-32c-4.418,0-8,3.582-8,8v32
		C152,108.418,155.582,112,160,112z M168,80h16v16h-16V80z"/>
	<path style="fill:#1E81CE;" d="M224,112h32c4.418,0,8-3.582,8-8V72c0-4.418-3.582-8-8-8h-32c-4.418,0-8,3.582-8,8v32
		C216,108.418,219.582,112,224,112z M232,80h16v16h-16V80z"/>
	<path style="fill:#1E81CE;" d="M96,176h32c4.418,0,8-3.582,8-8v-32c0-4.418-3.582-8-8-8H96c-4.418,0-8,3.582-8,8v32
		C88,172.418,91.582,176,96,176z M104,144h16v16h-16V144z"/>
	<path style="fill:#1E81CE;" d="M160,176h32c4.418,0,8-3.582,8-8v-32c0-4.418-3.582-8-8-8h-32c-4.418,0-8,3.582-8,8v32
		C152,172.418,155.582,176,160,176z M168,144h16v16h-16V144z"/>
	<path style="fill:#1E81CE;" d="M224,176h32c4.418,0,8-3.582,8-8v-32c0-4.418-3.582-8-8-8h-32c-4.418,0-8,3.582-8,8v32
		C216,172.418,219.582,176,224,176z M232,144h16v16h-16V144z"/>
	<path style="fill:#1E81CE;" d="M96,240h32c4.418,0,8-3.582,8-8v-32c0-4.418-3.582-8-8-8H96c-4.418,0-8,3.582-8,8v32
		C88,236.418,91.582,240,96,240z M104,208h16v16h-16V208z"/>
	<path style="fill:#1E81CE;" d="M160,240h32c4.418,0,8-3.582,8-8v-32c0-4.418-3.582-8-8-8h-32c-4.418,0-8,3.582-8,8v32
		C152,236.418,155.582,240,160,240z M168,208h16v16h-16V208z"/>
	<path style="fill:#1E81CE;" d="M224,240h32c4.418,0,8-3.582,8-8v-32c0-4.418-3.582-8-8-8h-32c-4.418,0-8,3.582-8,8v32
		C216,236.418,219.582,240,224,240z M232,208h16v16h-16V208z"/>
	<path style="fill:#1E81CE;" d="M96,304h32c4.418,0,8-3.582,8-8v-32c0-4.418-3.582-8-8-8H96c-4.418,0-8,3.582-8,8v32
		C88,300.418,91.582,304,96,304z M104,272h16v16h-16V272z"/>
	<path style="fill:#1E81CE;" d="M160,304h32c4.418,0,8-3.582,8-8v-32c0-4.418-3.582-8-8-8h-32c-4.418,0-8,3.582-8,8v32
		C152,300.418,155.582,304,160,304z M168,272h16v16h-16V272z"/>
	<path style="fill:#1E81CE;" d="M224,304h32c4.418,0,8-3.582,8-8v-32c0-4.418-3.582-8-8-8h-32c-4.418,0-8,3.582-8,8v32
		C216,300.418,219.582,304,224,304z M232,272h16v16h-16V272z"/>
	<path style="fill:#1E81CE;" d="M128,368c4.418,0,8-3.582,8-8v-32c0-4.418-3.582-8-8-8H96c-4.418,0-8,3.582-8,8v32
		c0,4.418,3.582,8,8,8H128z M104,336h16v16h-16V336z"/>
	<path style="fill:#1E81CE;" d="M160,368h32c4.418,0,8-3.582,8-8v-32c0-4.418-3.582-8-8-8h-32c-4.418,0-8,3.582-8,8v32
		C152,364.418,155.582,368,160,368z M168,336h16v16h-16V336z"/>
	<path style="fill:#1E81CE;" d="M224,368h32c4.418,0,8-3.582,8-8v-32c0-4.418-3.582-8-8-8h-32c-4.418,0-8,3.582-8,8v32
		C216,364.418,219.582,368,224,368z M232,336h16v16h-16V336z"/>
	<path style="fill:#1E81CE;" d="M424,464V168c0.001-3.032-1.712-5.805-4.424-7.16L296,99.056V48h8c4.418,0,8-3.582,8-8V8
		c0-4.418-3.582-8-8-8H48c-4.418,0-8,3.582-8,8v32c0,4.418,3.582,8,8,8h8v416H0v16h480v-16H424z M56,16h240v16H56V16z M72,48h208
		v416h-48v-72c0-4.418-3.582-8-8-8h-96c-4.418,0-8,3.582-8,8v72H72V48z M136,400h32v64h-32V400z M184,464v-64h32v64H184z M296,464
		V116.944l112,56V176h-72v16h72v32h-72v16h72v32h-72v16h72v32h-72v16h72v32h-72v16h72v32h-72v16h72v32H296z"/>
</g>
<g>
</g>
<g>
</g>
<g>
</g>
<g>
</g>
<g>
</g>
<g>
</g>
<g>
</g>
<g>
</g>
<g>
</g>
<g>
</g>
<g>
</g>
<g>
</g>
<g>
</g>
<g>
</g>
<g>
</g>
</svg>
