<?xml version="1.0" encoding="iso-8859-1"?>
<!-- Generator: Adobe Illustrator 19.0.0, SVG Export Plug-In . SVG Version: 6.00 Build 0)  -->
<svg version="1.1" id="Layer_1" xmlns="http://www.w3.org/2000/svg" xmlns:xlink="http://www.w3.org/1999/xlink" x="0px" y="0px"
	 viewBox="0 0 482.485 482.485" style="enable-background:new 0 0 482.485 482.485;" xml:space="preserve">
<g>
	<path style="fill:#64798A;" d="M448.151,159.322c2.409,0.602,4.819,1.205,7.228,1.205c15.059,0,27.106-12.047,27.106-27.106
		c0-15.059-12.047-27.106-27.106-27.106c-15.059,0-27.106,12.047-27.106,27.106c0,7.831,3.012,14.456,8.433,19.275l-13.252,16.866
		h-45.176v13.252h51.2L448.151,159.322z M455.379,119.567c7.831,0,13.854,6.024,13.854,13.854s-6.024,13.854-13.854,13.854
		c-7.831,0-13.854-6.024-13.854-13.854S447.548,119.567,455.379,119.567z"/>
	<path style="fill:#64798A;" d="M455.379,321.958c-2.409,0-4.819,0.602-7.228,1.205l-18.673-23.492h-51.2v13.252h45.176
		l13.252,16.866c-4.819,4.819-8.433,12.047-8.433,19.275c0,15.059,12.047,27.106,27.106,27.106
		c15.059,0,27.106-12.047,27.106-27.106C482.485,334.005,470.438,321.958,455.379,321.958z M455.379,362.918
		c-7.831,0-13.854-6.024-13.854-13.854c0-7.831,6.024-13.854,13.854-13.854c7.831,0,13.854,6.024,13.854,13.854
		C469.233,356.292,463.209,362.918,455.379,362.918z"/>
	<rect x="384.904" y="212.932" style="fill:#64798A;" width="57.826" height="13.252"/>
	<rect x="460.198" y="212.932" style="fill:#64798A;" width="15.059" height="13.252"/>
	<rect x="384.904" y="256.301" style="fill:#64798A;" width="57.826" height="13.252"/>
	<rect x="460.198" y="256.301" style="fill:#64798A;" width="15.059" height="13.252"/>
	<path style="fill:#64798A;" d="M53.007,183.416h51.2v-13.252H59.031l-13.252-16.866c4.819-4.819,8.433-12.047,8.433-19.275
		c0-15.059-12.047-27.106-27.106-27.106S0,118.965,0,134.024s12.047,27.106,27.106,27.106c2.409,0,4.819-0.602,7.228-1.205
		L53.007,183.416z M41.562,133.421c0,7.831-6.024,13.854-13.854,13.854s-13.854-6.024-13.854-13.854
		c0-7.831,6.024-13.854,13.854-13.854C35.539,119.567,41.562,126.193,41.562,133.421z"/>
	<path style="fill:#64798A;" d="M0.602,349.064c0,15.059,12.047,27.106,27.106,27.106s27.106-12.047,27.106-27.106
		c0-7.831-3.012-14.456-8.433-19.275l13.252-16.866h45.176v-13.252h-51.2l-18.673,23.492c-2.409-0.602-4.819-1.205-7.228-1.205
		C12.649,321.958,0.602,334.005,0.602,349.064z M13.854,349.064c0-7.831,6.024-13.854,13.854-13.854s13.854,6.024,13.854,13.854
		c0,7.831-6.024,13.854-13.854,13.854S13.854,356.292,13.854,349.064z"/>
	<rect x="40.358" y="212.932" style="fill:#64798A;" width="57.826" height="13.252"/>
	<rect x="8.433" y="212.932" style="fill:#64798A;" width="15.059" height="13.252"/>
	<rect x="40.358" y="256.301" style="fill:#64798A;" width="57.826" height="13.252"/>
	<rect x="8.433" y="256.301" style="fill:#64798A;" width="15.059" height="13.252"/>
</g>
<path style="fill:#D5D6DB;" d="M369.242,17.769H113.845c-8.433,0-15.661,7.228-15.661,15.661v433.092
	c0,8.433,7.228,15.661,15.661,15.661h255.398c8.433,0,15.661-7.228,15.661-15.661V33.431
	C384.904,24.998,377.675,17.769,369.242,17.769z"/>
<path style="fill:#EBF0F3;" d="M369.242,0.301H113.845c-8.433,0-15.661,7.228-15.661,15.661v433.092
	c0,8.433,7.228,15.661,15.661,15.661h255.398c8.433,0,15.661-7.228,15.661-15.661V15.962C384.904,7.529,377.675,0.301,369.242,0.301
	z"/>
<rect x="133.12" y="35.238" style="fill:#64798A;" width="216.847" height="355.388"/>
<rect x="133.12" y="341.233" style="fill:#3A556A;" width="216.847" height="49.995"/>
<path style="fill:#64798A;" d="M241.544,453.873c-13.252,0-24.094-10.842-24.094-24.094c0-13.252,10.842-24.094,24.094-24.094
	s24.094,10.842,24.094,24.094C265.638,443.031,254.795,453.873,241.544,453.873z M241.544,414.118
	c-8.433,0-15.661,7.228-15.661,15.661s7.228,15.661,15.661,15.661c8.433,0,15.661-7.228,15.661-15.661
	C257.205,421.346,249.976,414.118,241.544,414.118z"/>
<path style="fill:#44C4A1;" d="M172.875,350.268h-22.889c-2.409,0-4.819,2.409-4.819,4.819v22.889c0,2.409,2.409,4.819,4.819,4.819
	h22.889c2.409,0,4.819-2.409,4.819-4.819v-22.889C177.694,352.678,175.887,350.268,172.875,350.268z"/>
<path style="fill:#FCD462;" d="M226.485,350.268h-22.889c-2.409,0-4.819,2.409-4.819,4.819v22.889c0,2.409,2.409,4.819,4.819,4.819
	h22.889c2.409,0,4.819-2.409,4.819-4.819v-22.889C231.304,352.678,228.894,350.268,226.485,350.268z"/>
<path style="fill:#27A2DB;" d="M279.492,350.268h-22.889c-2.409,0-4.819,2.409-4.819,4.819v22.889c0,2.409,2.409,4.819,4.819,4.819
	h22.889c2.409,0,4.819-2.409,4.819-4.819v-22.889C284.311,352.678,282.504,350.268,279.492,350.268z"/>
<path style="fill:#DC8744;" d="M333.101,350.268h-22.889c-2.409,0-4.819,2.409-4.819,4.819v22.889c0,2.409,2.409,4.819,4.819,4.819
	h22.889c2.409,0,4.819-2.409,4.819-4.819v-22.889C337.318,352.678,335.511,350.268,333.101,350.268z"/>
<circle style="fill:#FFFFFF;" cx="241.544" cy="185.826" r="74.692"/>
<g>
	<circle style="fill:#44C4A1;" cx="241.544" cy="147.878" r="27.708"/>
	<path style="fill:#44C4A1;" d="M241.544,247.868c22.287,0,41.562-11.445,52.405-28.913c-9.035-20.48-28.913-34.334-52.405-34.334
		s-43.369,13.854-52.405,34.334C199.981,236.424,219.256,247.868,241.544,247.868z"/>
</g>
<g>
</g>
<g>
</g>
<g>
</g>
<g>
</g>
<g>
</g>
<g>
</g>
<g>
</g>
<g>
</g>
<g>
</g>
<g>
</g>
<g>
</g>
<g>
</g>
<g>
</g>
<g>
</g>
<g>
</g>
</svg>
