<svg id="Flat" enable-background="new 0 0 64 64" height="512" viewBox="0 0 64 64" width="512" xmlns="http://www.w3.org/2000/svg"><path d="m38 0h-30c-1.105 0-2 .895-2 2v60c0 1.105.895 2 2 2h30c1.105 0 2-.895 2-2v-60c0-1.105-.895-2-2-2z" fill="#f7ae60"/><path d="m35 17.387v-6.387c0-1.105-.895-2-2-2h-20c-1.105 0-2 .895-2 2v36c0 1.105.895 2 2 2h20c1.105 0 2-.895 2-2v-9.613z" fill="#fffefa"/><path d="m37.878 40.264c-2.774-2.146-4.631-5.23-5.229-8.685l-1.648-9.521 12.999-7.058 13 7.059-1.663 9.594c-.604 3.486-2.486 6.589-5.298 8.736l-6.039 4.611z" fill="#bde660"/><path d="m40.325 37.1c-1.98-1.532-3.308-3.735-3.734-6.203l-1.159-6.693 8.568-4.652 8.568 4.652-1.173 6.766c-.432 2.49-1.775 4.706-3.784 6.24l-3.596 2.746z" fill="#fdfefc"/><path d="m43.999 41.288c-.216 0-.432-.07-.612-.209l-4.239-3.279c-2.118-1.638-3.536-3.994-3.993-6.633l-1.142-6.591c-.073-.423.131-.845.508-1.05l3.001-1.629.955 1.758-2.371 1.287 1.02 5.884c.371 2.145 1.524 4.06 3.246 5.392l3.631 2.809 3.569-2.727c1.747-1.333 2.915-3.259 3.29-5.424l1.029-5.935-2.367-1.285.955-1.758 2.997 1.627c.377.205.581.627.508 1.05l-1.151 6.642c-.462 2.663-1.898 5.032-4.047 6.672l-4.18 3.193c-.179.138-.393.206-.607.206z" fill="#d7f0a0"/><path d="m47.525 22.572-3.526-1.916-3.521 1.913-.955-1.758 3.999-2.171c.299-.161.656-.161.955 0l4.004 2.174z" fill="#d7f0a0"/><path d="m44 33c-.265 0-.52-.105-.707-.293l-3-3 1.414-1.414 2.226 2.226 4.299-5.159 1.537 1.28-5 6c-.181.216-.442.346-.724.359-.015.001-.03.001-.045.001z" fill="#bde660"/><path d="m43 35h2v2h-2z" fill="#bde660"/><path d="m43 23h2v2h-2z" fill="#bde660"/><path d="m18 4h10v2h-10z" fill="#f8f9fc"/><circle cx="23" cy="56" fill="#fffefa" r="4"/><path d="m14 14h2v2h-2z" fill="#ffe585"/><path d="m18 12h2v4h-2z" fill="#ffe585"/><path d="m28 12h4v2h-4z" fill="#ffe585"/><g fill="#d7f0a0"><path d="m26 32h2v2h-2z"/><path d="m26 36h2v2h-2z"/><path d="m24 34h2v2h-2z"/><path d="m28 34h2v2h-2z"/><path d="m54 10h2v2h-2z"/><path d="m54 14h2v2h-2z"/><path d="m52 12h2v2h-2z"/><path d="m56 12h2v2h-2z"/></g></svg>