<svg id="Layer_1" data-name="Layer 1" xmlns="http://www.w3.org/2000/svg" viewBox="0 0 512 512"><defs><style>.cls-1{opacity:0.3;}.cls-2{fill:#0064b5;}.cls-3{fill:#fff;}.cls-4{fill:#f4f4f4;}.cls-5{fill:#035891;}</style></defs><title>ride</title><g class="cls-1"><path class="cls-2" d="M256,0C153.76,0,70.57,83.18,70.57,185.43c0,126.88,165.94,313.16,173,321a16.69,16.69,0,0,0,24.84,0c7.07-7.87,173-194.15,173-321C441.43,83.18,358.24,0,256,0Zm0,278.72a93.3,93.3,0,1,1,93.29-93.29A93.4,93.4,0,0,1,256,278.72Z"/></g><path d="M395.09,334.65c-22.58,0-40.91,17.92-40.91,40s18.33,40,40.91,40,40.91-17.91,40.91-40S417.67,334.65,395.09,334.65Zm0,64c-13.5,0-24.55-10.79-24.55-24s11-24,24.55-24,24.54,10.8,24.54,24S408.59,398.64,395.09,398.64Z"/><ellipse class="cls-3" cx="395.09" cy="374.65" rx="24.55" ry="24"/><path d="M116.91,334.65c-22.58,0-40.91,17.92-40.91,40s18.33,40,40.91,40,40.91-17.91,40.91-40S139.49,334.65,116.91,334.65Zm0,64c-13.5,0-24.55-10.79-24.55-24s11-24,24.55-24,24.54,10.8,24.54,24S130.41,398.64,116.91,398.64Z"/><ellipse class="cls-3" cx="116.91" cy="374.65" rx="24.55" ry="24"/><path d="M493.27,334.65v-48a8.12,8.12,0,0,0-5.56-7.6l-46.23-15c-17.35-28.79-41.24-56.15-94.09-65.19a.3.3,0,0,0-.25-.08c-97.52-13.2-170.75,8.32-217.79,63.91-54.33.8-110.62,17.52-110.62,48v24a8.11,8.11,0,0,0-8.18,8v32a8.11,8.11,0,0,0,8.18,8H51.46a8.11,8.11,0,0,0,8.18-8c0-30.88,25.69-56,57.27-56s57.27,25.11,57.27,56a8.11,8.11,0,0,0,8.18,8H329.63a8.12,8.12,0,0,0,8.19-8c0-30.88,25.69-56,57.27-56s57.27,25.11,57.27,56a8.11,8.11,0,0,0,8.18,8h32.73a8.11,8.11,0,0,0,8.18-8v-32A8.11,8.11,0,0,0,493.27,334.65ZM387.32,229.55c14.23,8.48,24.79,19.76,33.95,33.11H387ZM288.73,211a374.28,374.28,0,0,1,56,3.6A132.86,132.86,0,0,1,371,221.71l-.41,41h-81.9V211Zm-16.37.64v51H151.44C181.79,232.11,221.8,215.15,272.36,211.63Zm212.73,155H468.23c-4-35.92-35.34-64-73.14-64s-69.14,28.07-73.15,64H190.05c-4-35.92-35.34-64-73.14-64s-69.14,28.07-73.14,64H26.91v-16a8.11,8.11,0,0,0,8.18-8v-24h8.18a8,8,0,1,0,0-16H39c11-11.76,44.92-24,94.25-24H434.69l42.22,13.76v10.24h-8.19a8,8,0,1,0,0,16h8.19v24a8.11,8.11,0,0,0,8.18,8Z"/><path class="cls-3" d="M133.27,374.65c0-11.83-8.89-21.66-20.45-23.59-11.56,1.93-20.45,11.76-20.45,23.59s8.89,21.66,20.45,23.59C124.38,396.31,133.27,386.48,133.27,374.65Z"/><path class="cls-4" d="M116.91,350.65a25.08,25.08,0,0,0-4.09.41c11.56,1.93,20.45,11.76,20.45,23.59s-8.89,21.66-20.45,23.59a25.08,25.08,0,0,0,4.09.4c13.5,0,24.55-10.79,24.55-24S130.41,350.65,116.91,350.65Z"/><path class="cls-3" d="M411.45,374.24c0-11.83-8.89-21.66-20.45-23.59-11.56,1.93-20.46,11.76-20.46,23.59s8.9,21.66,20.46,23.59C402.56,395.91,411.45,386.07,411.45,374.24Z"/><path class="cls-4" d="M395.09,350.65a25.08,25.08,0,0,0-4.09.41c11.56,1.93,20.45,11.76,20.45,23.59s-8.89,21.66-20.45,23.59a25.08,25.08,0,0,0,4.09.4c13.5,0,24.54-10.79,24.54-24S408.59,350.65,395.09,350.65Z"/><path class="cls-2" d="M188.65,358.72c-.06-.24-.13-.48-.19-.72C188.52,358.24,188.6,358.47,188.65,358.72Z"/><path class="cls-2" d="M323.53,358c-.06.23-.13.46-.18.7Z"/><path class="cls-2" d="M45.35,358c-.05.23-.13.46-.18.7C45.23,358.47,45.3,358.25,45.35,358Z"/><path class="cls-2" d="M466.83,358.72c-.06-.24-.14-.48-.19-.72C466.7,358.24,466.78,358.47,466.83,358.72Z"/><path class="cls-2" d="M476.91,342.65v-24h-8.19a8,8,0,1,1,0-16h8.19V292.42l-42.22-13.76H133.27c-49.33,0-83.2,12.24-94.25,24h4.25a8,8,0,1,1,0,16H35.09v24a8.11,8.11,0,0,1-8.18,8H47.58c10.11-27.9,37.37-48,69.33-48s59.21,20.09,69.33,48H325.76c10.12-27.9,37.38-48,69.34-48s59.21,20.09,69.33,48h20.66A8.11,8.11,0,0,1,476.91,342.65Z"/><path class="cls-5" d="M45.17,358.71a71.58,71.58,0,0,0-1.4,7.94A65.23,65.23,0,0,1,45.17,358.71Z"/><path class="cls-5" d="M47.58,350.65h0A70.28,70.28,0,0,0,45.35,358,74.34,74.34,0,0,1,47.58,350.65Z"/><path class="cls-5" d="M26.91,366.65H43.77a69.33,69.33,0,0,1,1.4-7.94c.06-.24.13-.46.18-.7a70.28,70.28,0,0,1,2.23-7.36H26.91Z"/><path class="cls-5" d="M468.23,366.65a69.16,69.16,0,0,0-1.4-7.93A64.73,64.73,0,0,1,468.23,366.65Z"/><path class="cls-5" d="M464.42,350.65c.87,2.4,1.6,4.86,2.23,7.35a73.35,73.35,0,0,0-2.23-7.35Z"/><path class="cls-5" d="M464.42,350.65a70.83,70.83,0,0,1,2.23,7.35c.05.24.13.48.18.72a69.17,69.17,0,0,1,1.41,7.93h16.85v-16Z"/><path class="cls-5" d="M325.76,350.65h0a70.28,70.28,0,0,0-2.23,7.36A74.34,74.34,0,0,1,325.76,350.65Z"/><path class="cls-5" d="M323.35,358.71a71.59,71.59,0,0,0-1.41,7.94A67.23,67.23,0,0,1,323.35,358.71Z"/><path class="cls-5" d="M190.05,366.65a69.16,69.16,0,0,0-1.4-7.93A64.73,64.73,0,0,1,190.05,366.65Z"/><path class="cls-5" d="M186.24,350.65a74.16,74.16,0,0,1,2.23,7.35,73.35,73.35,0,0,0-2.23-7.35Z"/><path class="cls-5" d="M186.24,350.65a70.79,70.79,0,0,1,2.22,7.35c.06.24.13.48.19.72a71.4,71.4,0,0,1,1.4,7.93H321.94a69.17,69.17,0,0,1,1.41-7.93l.18-.71a70.28,70.28,0,0,1,2.23-7.36"/></svg>