<svg id="Layer_1" data-name="Layer 1" xmlns="http://www.w3.org/2000/svg" viewBox="0 0 512 512"><defs><style>.cls-1{fill:#0064b5;}.cls-2{fill:#ff6265;}</style></defs><title>smartphone2</title><path class="cls-1" d="M384,0H128A28.44,28.44,0,0,0,99.56,28.44V483.55A28.44,28.44,0,0,0,128,512H384a28.44,28.44,0,0,0,28.44-28.44V28.44A28.44,28.44,0,0,0,384,0ZM276.11,461a28.45,28.45,0,1,1,8.33-20.11A28.21,28.21,0,0,1,276.11,461Zm93.67-91.22H142.22V56.89H369.78Z"/><path class="cls-2" d="M304.88,180.88c-13.74-13.75-36-13.31-48.88-.42-12.9-12.89-35.13-13.33-48.88.42a34.71,34.71,0,0,0,0,49.3L256,279.06l48.88-48.88A34.71,34.71,0,0,0,304.88,180.88Z"/></svg>