<svg id="logo" data-name="Layer 1" xmlns="http://www.w3.org/2000/svg" viewBox="0 0 302 124"><defs><style>.cls-1,.cls-2{fill:#fcfcfc;}.cls-1{fill-rule:evenodd;}</style></defs><title>hala</title><path class="cls-1" d="M108.83,73.1c0-13.37,7.43-21.43,20.62-21.43h19V76.4H108.83Zm-9.89-.82v28.85h9.89V86.3h39.58v14.83h9.89V47.54c0-3.84-1.92-5.77-5.77-5.77H128.62c-17.47,0-29.68,13-29.68,30.51Zm0,0"/><path class="cls-1" d="M171.49,92.89c0,4.92,1.69,8.24,6.6,8.24h47.82V91.24h-43.7V41.77H171.49Zm0,0"/><path class="cls-1" d="M244.05,69c0-10.32,9.07-17.31,19.79-17.31h19V76.4H244.05Zm-9.89,0v32.15h9.89V86.3H282.8v14.83h10.72V50c0-3.72-1.56-8.25-4.95-8.25H262.19c-14.53,0-28,12.63-28,27.21Zm0,0"/><path class="cls-1" d="M105.88,17.71,93.17,53.91l-5,14.28L72.43,113a6.34,6.34,0,0,1-8.07,3.87l-1.26-.44a6.34,6.34,0,0,1-3.88-8.07L73.05,69l5-14.28,14.6-41.6a6.36,6.36,0,0,1,8.08-3.88l1.26.44A6.36,6.36,0,0,1,105.88,17.71Z"/><rect class="cls-2" x="40.2" y="6.75" width="14.01" height="94.3" rx="7" ry="7" transform="translate(20.52 -12.59) rotate(19.34)"/><path class="cls-1" d="M93.17,53.91l-5,14.28L73.05,69,48.93,70.16l-15.12.76-9.26.47a6.36,6.36,0,0,1-6.65-6l-.06-1.33a6.35,6.35,0,0,1,6-6.65l15-.75,15.12-.76,24.12-1.22Z"/></svg>