<svg id="logo" xmlns="http://www.w3.org/2000/svg" viewBox="0 0 262.74 325.8"><defs><style>.cls-1{fill:#fcfcfc;}</style></defs><title>logo-icon</title><path class="cls-1" d="M257.72,30.29,221,134.87l-14.44,41.26L161.09,305.59a18.32,18.32,0,0,1-23.32,11.18l-3.64-1.27a18.32,18.32,0,0,1-11.21-23.32l40-113.71,14.44-41.26L219.5,17A18.39,18.39,0,0,1,242.85,5.82l3.64,1.27A18.37,18.37,0,0,1,257.72,30.29Z"/><rect class="cls-1" x="-47.99" y="114.61" width="272.44" height="40.48" rx="20.22" ry="20.22" transform="translate(-68.23 173.44) rotate(-70.66)"/><path class="cls-1" d="M221,134.87l-14.44,41.26-43.68,2.34-69.69,3.35L49.51,184l-26.75,1.36A18.38,18.38,0,0,1,3.55,168l-.18-3.84A18.35,18.35,0,0,1,20.71,145L64,142.82l43.69-2.2,69.68-3.52Z"/></svg>